<svg width="50" height="50" viewBox="0 0 50 50" fill="none" xmlns="http://www.w3.org/2000/svg">
<path d="M38.275 42.1291V30.9666H42.0042V45.8332H8.33337V30.9666H12.0625V42.1291H38.275Z" fill="white"/>
<path d="M16.1833 29.9084L34.4958 33.7084L35.2708 30.0522L16.9583 26.2501L16.1833 29.9084V29.9084ZM18.6041 21.248L35.5625 29.0897L37.1124 25.7209L20.1541 17.8313L18.6041 21.248V21.248ZM23.3041 12.9709L37.6937 24.8563L40.0687 22.0167L25.6791 10.1334L23.3041 12.9709V12.9709ZM32.6062 4.16675L29.6041 6.37925L40.75 21.2959L43.75 19.0813L32.6062 4.16675ZM15.7937 38.3751H34.4958V34.6709H15.7937V38.3751V38.3751Z" fill="white"/>
</svg>
