<svg width="50" height="50" viewBox="0 0 50 50" fill="none" xmlns="http://www.w3.org/2000/svg">
<path d="M49.2562 10.2854C47.5166 11.0562 45.6479 11.577 43.6833 11.8125C45.7104 10.5995 47.2269 8.69051 47.9499 6.44162C46.0455 7.57285 43.9611 8.36911 41.7874 8.79579C40.3257 7.23509 38.3897 6.20064 36.2798 5.85303C34.1699 5.50542 32.0043 5.86411 30.1192 6.8734C28.2341 7.88269 26.7349 9.48613 25.8544 11.4348C24.974 13.3834 24.7615 15.5682 25.2499 17.65C21.391 17.4562 17.6158 16.4532 14.1696 14.706C10.7233 12.9588 7.68295 10.5065 5.24578 7.50829C4.41244 8.94579 3.93328 10.6125 3.93328 12.3875C3.93235 13.9854 4.32584 15.5588 5.07886 16.9682C5.83187 18.3775 6.92111 19.5792 8.24994 20.4666C6.70885 20.4176 5.20176 20.0012 3.85411 19.252V19.377C3.85395 21.6182 4.62918 23.7903 6.04824 25.525C7.4673 27.2596 9.4428 28.4498 11.6395 28.8937C10.2099 29.2806 8.71106 29.3376 7.25619 29.0604C7.87598 30.9887 9.08327 32.675 10.709 33.8831C12.3348 35.0913 14.2977 35.7608 16.3229 35.7979C12.885 38.4967 8.63929 39.9606 4.26869 39.9541C3.49449 39.9543 2.72094 39.9091 1.95203 39.8187C6.38843 42.6712 11.5527 44.185 16.827 44.1791C34.6812 44.1791 44.4416 29.3916 44.4416 16.5666C44.4416 16.15 44.4312 15.7291 44.4124 15.3125C46.311 13.9395 47.9498 12.2393 49.252 10.2916L49.2562 10.2854V10.2854Z" fill="white"/>
</svg>
