<svg width="50" height="50" viewBox="0 0 50 50" fill="none" xmlns="http://www.w3.org/2000/svg">
<path d="M41.6667 22.9167C41.1141 22.9167 40.5842 23.1362 40.1935 23.5269C39.8028 23.9176 39.5833 24.4475 39.5833 25V37.5C39.5833 38.0525 39.3638 38.5824 38.9731 38.9731C38.5824 39.3638 38.0525 39.5833 37.5 39.5833H12.5C11.9475 39.5833 11.4176 39.3638 11.0269 38.9731C10.6362 38.5824 10.4167 38.0525 10.4167 37.5V12.5C10.4167 11.9475 10.6362 11.4176 11.0269 11.0269C11.4176 10.6362 11.9475 10.4167 12.5 10.4167H25C25.5525 10.4167 26.0824 10.1972 26.4731 9.80647C26.8638 9.41577 27.0833 8.88587 27.0833 8.33333C27.0833 7.7808 26.8638 7.25089 26.4731 6.86019C26.0824 6.46949 25.5525 6.25 25 6.25H12.5C10.8424 6.25 9.25269 6.90848 8.08058 8.08058C6.90848 9.25269 6.25 10.8424 6.25 12.5V37.5C6.25 39.1576 6.90848 40.7473 8.08058 41.9194C9.25269 43.0915 10.8424 43.75 12.5 43.75H37.5C39.1576 43.75 40.7473 43.0915 41.9194 41.9194C43.0915 40.7473 43.75 39.1576 43.75 37.5V25C43.75 24.4475 43.5305 23.9176 43.1398 23.5269C42.7491 23.1362 42.2192 22.9167 41.6667 22.9167Z" fill="white"/>
<path d="M33.3333 10.4167H36.625L23.5208 23.5C23.3255 23.6937 23.1705 23.9241 23.0648 24.178C22.959 24.4318 22.9045 24.7041 22.9045 24.9792C22.9045 25.2542 22.959 25.5265 23.0648 25.7804C23.1705 26.0342 23.3255 26.2647 23.5208 26.4583C23.7145 26.6536 23.9449 26.8086 24.1988 26.9144C24.4526 27.0201 24.7249 27.0746 25 27.0746C25.275 27.0746 25.5473 27.0201 25.8012 26.9144C26.055 26.8086 26.2854 26.6536 26.4791 26.4583L39.5833 13.375V16.6667C39.5833 17.2192 39.8028 17.7491 40.1935 18.1398C40.5842 18.5305 41.1141 18.75 41.6666 18.75C42.2192 18.75 42.7491 18.5305 43.1398 18.1398C43.5305 17.7491 43.75 17.2192 43.75 16.6667V8.33333C43.75 7.7808 43.5305 7.25089 43.1398 6.86019C42.7491 6.46949 42.2192 6.25 41.6666 6.25H33.3333C32.7808 6.25 32.2508 6.46949 31.8601 6.86019C31.4694 7.25089 31.25 7.7808 31.25 8.33333C31.25 8.88587 31.4694 9.41577 31.8601 9.80647C32.2508 10.1972 32.7808 10.4167 33.3333 10.4167V10.4167Z" fill="white"/>
</svg>
